<svg width="572" height="144" viewBox="0 0 572 144" fill="none" xmlns="http://www.w3.org/2000/svg">
<path d="M216.611 7.17847H204.766L168.156 143.57H125.264L108.216 80.3989L91.3461 143.57H48.4547L11.8445 7.17847H0V0H144.826V7.17847H131.546L163.849 127.597L196.152 7.17847H176.591V0H216.611V7.17847ZM104.088 64.6063L88.6542 7.17847H54.7359L87.039 127.597L104.088 64.6063Z" fill="white"/>
<path d="M291.906 0V7.17847H277.549V136.391H291.906V143.57H221.916V136.391H236.273V7.17847H221.916V0H291.906Z" fill="white"/>
<path d="M374.402 143.57H304.412V136.391H318.769V7.17847H304.412V0H413.884L430.574 16.69V56.8894L415.679 71.7848L430.574 86.6801V136.391H444.931V143.57H404.193L389.298 128.674V75.374H360.045V136.391H374.402V143.57ZM360.045 7.17847V68.1955H389.298V7.17847H360.045Z" fill="white"/>
<path d="M472.39 143.57L453.905 125.085V18.4846L472.39 0H552.968L571.453 18.4846V125.085L552.968 143.57H472.39ZM495.182 7.17847V136.391H530.177V7.17847H495.182Z" fill="white"/>
</svg>
