<svg width="290" height="128" viewBox="0 0 290 128" fill="none" xmlns="http://www.w3.org/2000/svg">
<path d="M16.4684 74.5414C14.1646 74.5414 12.0029 74.1147 9.98346 73.2614C7.99246 72.3797 6.24322 71.1709 4.73575 69.6349C3.25671 68.0706 2.09055 66.2502 1.23727 64.1739C0.412422 62.0976 0 59.8506 0 57.4329C0 55.0437 0.412422 52.8252 1.23727 50.7773C2.09055 48.701 3.25671 46.8948 4.73575 45.3589C6.24322 43.7946 7.99246 42.5715 9.98346 41.6898C11.9745 40.8081 14.1361 40.3672 16.4684 40.3672C18.6586 40.3672 20.5358 40.6516 22.1001 41.2205C23.6929 41.7893 25.2858 42.7279 26.8786 44.0363C27.1061 44.207 27.2768 44.3919 27.3905 44.591C27.5327 44.7616 27.6181 44.9465 27.6465 45.1456C27.7034 45.3163 27.7318 45.5296 27.7318 45.7856C27.7318 46.326 27.5327 46.7811 27.1345 47.1508C26.7648 47.4921 26.3097 47.6912 25.7693 47.7481C25.2289 47.7766 24.7027 47.5917 24.1907 47.1935C23.1383 46.2833 22.0433 45.5865 20.9055 45.1029C19.7963 44.6194 18.3172 44.3776 16.4684 44.3776C14.7903 44.3776 13.2117 44.719 11.7327 45.4016C10.2537 46.0842 8.9453 47.0228 7.80758 48.2174C6.69831 49.412 5.8308 50.8057 5.20505 52.3985C4.57931 53.9629 4.26644 55.641 4.26644 57.4329C4.26644 59.2533 4.57931 60.9599 5.20505 62.5527C5.8308 64.117 6.69831 65.4965 7.80758 66.6911C8.9453 67.8857 10.2537 68.8243 11.7327 69.507C13.2117 70.1611 14.7903 70.4882 16.4684 70.4882C17.919 70.4882 19.2843 70.2465 20.5642 69.7629C21.8726 69.251 23.1241 68.5541 24.3187 67.6724C24.8307 67.3026 25.3284 67.1462 25.8119 67.2031C26.3239 67.2315 26.7506 67.4306 27.0919 67.8004C27.4332 68.1417 27.6039 68.6252 27.6039 69.251C27.6039 69.5354 27.547 69.8198 27.4332 70.1043C27.3194 70.3602 27.1488 70.602 26.9212 70.8295C25.3853 72.0526 23.7356 72.977 21.9722 73.6027C20.2371 74.2285 18.4026 74.5414 16.4684 74.5414Z" fill="white"/>
<path d="M43.1467 74.2854C40.8428 74.2854 38.8091 73.7876 37.0457 72.7921C35.2822 71.7682 33.8885 70.3745 32.8646 68.611C31.8691 66.8191 31.3713 64.7712 31.3713 62.4673C31.3713 60.135 31.8691 58.0871 32.8646 56.3237C33.8885 54.5318 35.2822 53.1381 37.0457 52.1426C38.8091 51.1186 40.8428 50.6066 43.1467 50.6066C45.4221 50.6066 47.4416 51.1186 49.205 52.1426C50.9685 53.1381 52.348 54.5318 53.3435 56.3237C54.3674 58.0871 54.8794 60.135 54.8794 62.4673C54.8794 64.7712 54.3816 66.8191 53.3861 68.611C52.3906 70.3745 51.0111 71.7682 49.2477 72.7921C47.4842 73.7876 45.4506 74.2854 43.1467 74.2854ZM43.1467 70.4456C44.6257 70.4456 45.9341 70.1043 47.0718 69.4216C48.2095 68.739 49.0912 67.8004 49.717 66.6058C50.3712 65.4112 50.6983 64.0317 50.6983 62.4673C50.6983 60.903 50.3712 59.5235 49.717 58.3289C49.0912 57.1058 48.2095 56.153 47.0718 55.4704C45.9341 54.7877 44.6257 54.4464 43.1467 54.4464C41.6676 54.4464 40.3593 54.7877 39.2216 55.4704C38.0838 56.153 37.1879 57.1058 36.5337 58.3289C35.8795 59.5235 35.5524 60.903 35.5524 62.4673C35.5524 64.0317 35.8795 65.4112 36.5337 66.6058C37.1879 67.8004 38.0838 68.739 39.2216 69.4216C40.3593 70.1043 41.6676 70.4456 43.1467 70.4456Z" fill="white"/>
<path d="M80.9816 74.1147C80.3559 74.1147 79.8297 73.9156 79.4031 73.5174C79.0049 73.0908 78.8058 72.5646 78.8058 71.9388V52.9532C78.8058 52.299 79.0049 51.7728 79.4031 51.3746C79.8297 50.9764 80.3559 50.7773 80.9816 50.7773C81.6358 50.7773 82.1478 50.9764 82.5176 51.3746C82.8873 51.7728 83.0722 52.299 83.0722 52.9532V71.9388C83.0722 72.5646 82.8873 73.0908 82.5176 73.5174C82.1478 73.9156 81.6358 74.1147 80.9816 74.1147ZM63.4466 74.1147C62.8208 74.1147 62.3089 73.9156 61.9107 73.5174C61.5409 73.0908 61.356 72.5646 61.356 71.9388V52.9532C61.356 52.299 61.5409 51.7728 61.9107 51.3746C62.3089 50.9764 62.8208 50.7773 63.4466 50.7773C64.1008 50.7773 64.627 50.9764 65.0252 51.3746C65.4234 51.7728 65.6225 52.299 65.6225 52.9532V71.9388C65.6225 72.5646 65.4234 73.0908 65.0252 73.5174C64.627 73.9156 64.1008 74.1147 63.4466 74.1147ZM65.0678 63.9179V60.0781H80.043V63.9179H65.0678Z" fill="white"/>
<path d="M101.352 74.2854C99.048 74.2854 97.0143 73.7876 95.2509 72.7921C93.4874 71.7682 92.0937 70.3745 91.0698 68.611C90.0743 66.8191 89.5765 64.7712 89.5765 62.4673C89.5765 60.135 90.0743 58.0871 91.0698 56.3237C92.0937 54.5318 93.4874 53.1381 95.2509 52.1426C97.0143 51.1186 99.048 50.6066 101.352 50.6066C103.627 50.6066 105.647 51.1186 107.41 52.1426C109.174 53.1381 110.553 54.5318 111.549 56.3237C112.573 58.0871 113.085 60.135 113.085 62.4673C113.085 64.7712 112.587 66.8191 111.591 68.611C110.596 70.3745 109.216 71.7682 107.453 72.7921C105.689 73.7876 103.656 74.2854 101.352 74.2854ZM101.352 70.4456C102.831 70.4456 104.139 70.1043 105.277 69.4216C106.415 68.739 107.296 67.8004 107.922 66.6058C108.576 65.4112 108.903 64.0317 108.903 62.4673C108.903 60.903 108.576 59.5235 107.922 58.3289C107.296 57.1058 106.415 56.153 105.277 55.4704C104.139 54.7877 102.831 54.4464 101.352 54.4464C99.8729 54.4464 98.5645 54.7877 97.4268 55.4704C96.289 56.153 95.3931 57.1058 94.7389 58.3289C94.0847 59.5235 93.7576 60.903 93.7576 62.4673C93.7576 64.0317 94.0847 65.4112 94.7389 66.6058C95.3931 67.8004 96.289 68.739 97.4268 69.4216C98.5645 70.1043 99.8729 70.4456 101.352 70.4456Z" fill="white"/>
<path d="M209.238 74.1135C208.613 74.1135 208.086 73.9144 207.66 73.5162C207.262 73.0896 207.062 72.5634 207.062 71.9377V52.952C207.062 52.2978 207.262 51.7716 207.66 51.3734C208.086 50.9752 208.613 50.7761 209.238 50.7761C210.149 50.7761 210.917 51.217 211.542 52.0987L220.374 64.8554L229.205 52.0987C229.831 51.217 230.599 50.7761 231.509 50.7761C232.163 50.7761 232.69 50.9752 233.088 51.3734C233.486 51.7716 233.685 52.2978 233.685 52.952V71.9377C233.685 72.5634 233.486 73.0896 233.088 73.5162C232.69 73.9144 232.163 74.1135 231.509 74.1135C230.883 74.1135 230.357 73.9144 229.931 73.5162C229.532 73.0896 229.333 72.5634 229.333 71.9377V56.4078L230.443 56.7491L222.592 67.8419C221.881 68.8374 221.113 69.3351 220.288 69.3351C219.464 69.3067 218.71 68.8089 218.027 67.8419L210.305 56.7491L211.414 56.4078V71.9377C211.414 72.5634 211.215 73.0896 210.817 73.5162C210.419 73.9144 209.893 74.1135 209.238 74.1135Z" fill="white"/>
<path d="M252.317 74.2842C249.956 74.2842 247.852 73.7864 246.003 72.7909C244.182 71.767 242.746 70.3733 241.694 68.6098C240.67 66.8179 240.158 64.77 240.158 62.4662C240.158 60.1338 240.641 58.086 241.608 56.3225C242.604 54.5306 243.969 53.1369 245.704 52.1414C247.439 51.1174 249.43 50.6055 251.677 50.6055C253.896 50.6055 255.801 51.1032 257.394 52.0987C258.987 53.0658 260.196 54.4168 261.021 56.1518C261.874 57.8584 262.301 59.8352 262.301 62.0822C262.301 62.6226 262.116 63.0777 261.746 63.4474C261.376 63.7888 260.907 63.9594 260.338 63.9594H243.144V60.5463H260.21L258.461 61.7409C258.432 60.3187 258.148 59.053 257.607 57.9437C257.067 56.806 256.299 55.9101 255.304 55.2559C254.308 54.6017 253.099 54.2746 251.677 54.2746C250.056 54.2746 248.662 54.6301 247.496 55.3412C246.358 56.0523 245.491 57.0336 244.893 58.2851C244.296 59.5081 243.998 60.9018 243.998 62.4662C243.998 64.0305 244.353 65.4242 245.064 66.6473C245.775 67.8703 246.756 68.8374 248.008 69.5485C249.259 70.2595 250.696 70.6151 252.317 70.6151C253.199 70.6151 254.095 70.4586 255.005 70.1458C255.944 69.8044 256.697 69.4205 257.266 68.9938C257.693 68.6809 258.148 68.5245 258.631 68.5245C259.143 68.4961 259.584 68.6383 259.954 68.9511C260.438 69.3778 260.694 69.8471 260.722 70.3591C260.75 70.871 260.523 71.3119 260.039 71.6817C259.072 72.4496 257.863 73.0754 256.413 73.5589C254.991 74.0424 253.625 74.2842 252.317 74.2842Z" fill="white"/>
<path d="M276.745 74.2842C274.612 74.2842 272.72 73.7864 271.071 72.7909C269.449 71.767 268.17 70.3733 267.231 68.6098C266.292 66.8179 265.823 64.77 265.823 62.4662C265.823 60.1338 266.321 58.086 267.316 56.3225C268.34 54.5306 269.734 53.1369 271.497 52.1414C273.261 51.1174 275.294 50.6055 277.598 50.6055C279.874 50.6055 281.893 51.1174 283.657 52.1414C285.42 53.1369 286.8 54.5306 287.795 56.3225C288.819 58.086 289.331 60.1338 289.331 62.4662H286.814C286.814 64.77 286.373 66.8179 285.491 68.6098C284.638 70.3733 283.458 71.767 281.95 72.7909C280.443 73.7864 278.708 74.2842 276.745 74.2842ZM277.513 83.7984C275.494 83.7984 273.602 83.4001 271.839 82.6037C270.075 81.8073 268.582 80.6412 267.359 79.1053C266.989 78.6217 266.847 78.124 266.932 77.612C267.046 77.1 267.33 76.6876 267.786 76.3748C268.298 76.0334 268.824 75.9197 269.364 76.0334C269.933 76.1472 270.388 76.4316 270.729 76.8867C271.497 77.8538 272.464 78.6075 273.631 79.1479C274.797 79.6883 276.119 79.9586 277.598 79.9586C278.964 79.9586 280.215 79.6315 281.353 78.9773C282.519 78.3231 283.443 77.356 284.126 76.0761C284.809 74.7962 285.15 73.2318 285.15 71.383V65.3247L286.558 61.5702L289.331 62.4662V71.6817C289.331 73.9287 288.833 75.9623 287.838 77.7827C286.842 79.6315 285.449 81.0963 283.657 82.1771C281.893 83.2579 279.845 83.7984 277.513 83.7984ZM277.598 70.4444C279.077 70.4444 280.386 70.1031 281.523 69.4205C282.661 68.7378 283.543 67.7992 284.169 66.6046C284.823 65.41 285.15 64.0305 285.15 62.4662C285.15 60.9018 284.823 59.5223 284.169 58.3277C283.543 57.1047 282.661 56.1518 281.523 55.4692C280.386 54.7866 279.077 54.4453 277.598 54.4453C276.119 54.4453 274.811 54.7866 273.673 55.4692C272.536 56.1518 271.64 57.1047 270.985 58.3277C270.331 59.5223 270.004 60.9018 270.004 62.4662C270.004 64.0305 270.331 65.41 270.985 66.6046C271.64 67.7992 272.536 68.7378 273.673 69.4205C274.811 70.1031 276.119 70.4444 277.598 70.4444Z" fill="white"/>
<path d="M84.0508 42.6512C84.0508 19.2493 104.507 1.23047 128.518 1.23047C140.895 1.23047 151.787 7.05509 159.602 14.5917C167.418 7.05509 178.309 1.23047 190.686 1.23047C214.698 1.23047 235.154 19.2493 235.154 42.6512M101.566 83.6459C111.514 94.8662 124.349 104.284 135.952 112.167L155.972 125.767C158.165 127.257 161.04 127.257 163.232 125.767L183.252 112.167C194.856 104.284 207.69 94.8662 217.639 83.6459" stroke="#FDAF40" stroke-width="2" stroke-linecap="round" stroke-linejoin="round"/>
<path d="M161.782 46.3542C161.782 45.1511 160.806 44.1758 159.603 44.1758C158.4 44.1758 157.425 45.1511 157.425 46.3542V58.6983H145.081C143.878 58.6983 142.902 59.6736 142.902 60.8766C142.902 62.0797 143.878 63.055 145.081 63.055H157.425V75.3991C157.425 76.6022 158.4 77.5775 159.603 77.5775C160.806 77.5775 161.782 76.6022 161.782 75.3991V63.055H174.126C175.329 63.055 176.304 62.0797 176.304 60.8766C176.304 59.6736 175.329 58.6983 174.126 58.6983H161.782V46.3542Z" fill="#FDAF40"/>
</svg>
