<svg width="183" height="31" viewBox="0 0 183 31" fill="none" xmlns="http://www.w3.org/2000/svg">
<path d="M155.176 30.452V24.0328H157.237V6.41919H155.176V0H182.998V11.8207H173.765V6.41919H168.778V12.6035H172.405V17.0657H168.778V24.0328H173.765V17.8485H182.998V30.452H155.176Z" fill="#B29B47"/>
<path d="M128.25 30.452V24.0328H130.311V6.41919H128.25V0H145.644V6.41919H141.852V24.0328H145.562V20.4318H153.764V30.452H128.25Z" fill="#B29B47"/>
<path d="M126.838 9.47222H119.749V6.41919H117.111V24.0328H119.996V30.452H102.684V24.0328H105.569V6.41919H102.931V9.47222H95.8418V0H126.838V9.47222Z" fill="#B29B47"/>
<path d="M64.6094 24.0328H66.6703V6.41919H64.6094V0H83.5287C87.0735 0 89.7802 0.691499 91.6487 2.0745C93.5173 3.45749 94.4516 5.7016 94.4516 8.80682C94.4516 10.5551 94.0806 12.0686 93.3387 13.3472C92.5968 14.6258 91.5388 15.513 90.1649 16.0088L90.2061 16.4003C92.8441 16.7917 94.1631 18.3312 94.1631 21.0189V24.0328H96.1003V30.452H83.0341V21.2538C83.0341 20.2361 82.8692 19.4663 82.5394 18.9444C82.2372 18.4226 81.7426 18.0703 81.0556 17.8876C80.3961 17.705 79.448 17.6136 78.2115 17.6136V24.0328H80.9319V30.452H64.6094V24.0328ZM80.4373 12.8384C81.2342 12.8384 81.825 12.6427 82.2097 12.2513C82.6219 11.8338 82.828 11.1944 82.828 10.3333V8.92424C82.828 8.06313 82.6219 7.43687 82.2097 7.04545C81.825 6.62795 81.2342 6.41919 80.4373 6.41919H78.2115V12.8384H80.4373Z" fill="#B29B47"/>
<path d="M47.8228 31C43.5086 31 40.1699 30.0997 37.8067 28.2992C35.471 26.4987 34.3031 23.5762 34.3031 19.5316V6.41919H32.2422V0H47.4931V6.41919H45.8443V21.5278C45.8443 22.3889 46.0367 23.0282 46.4214 23.4457C46.8336 23.8371 47.4381 24.0328 48.235 24.0328C49.0319 24.0328 49.6227 23.8371 50.0074 23.4457C50.4196 23.0282 50.6257 22.3889 50.6257 21.5278V6.41919H48.9769V0H63.1149V6.41919H61.054V19.5316C61.054 23.5762 59.9136 26.4987 57.6328 28.2992C55.352 30.0997 52.082 31 47.8228 31Z" fill="#B29B47"/>
<path d="M30.9963 9.47222H23.9068V6.41919H21.2688V24.0328H24.1541V30.452H6.84228V24.0328H9.72758V6.41919H7.0896V9.47222H0V0H30.9963V9.47222Z" fill="#B29B47"/>
</svg>
