<svg width="150" height="34" viewBox="0 0 150 34" fill="none" xmlns="http://www.w3.org/2000/svg">
<path d="M117.944 32.9376L123.045 33.5466C124.233 33.6884 124.827 33.7594 125.318 33.6147C125.973 33.4218 126.527 32.9681 126.858 32.3532C127.106 31.892 127.175 31.278 127.312 30.0501C127.449 28.8221 127.518 28.2081 127.378 27.7006C127.191 27.0239 126.752 26.4516 126.157 26.1095C125.711 25.8529 124.479 25.7059 123.291 25.564L124.47 15.022C125.658 15.1639 126.89 15.311 127.381 15.1663C128.035 14.9734 128.589 14.5197 128.92 13.9048C129.169 13.4436 129.237 12.8296 129.374 11.6017C129.512 10.3737 129.58 9.75969 129.44 9.25219C129.254 8.57552 128.815 8.00318 128.22 7.66109C127.773 7.40452 127.179 7.33359 125.991 7.19171L120.891 6.58275C119.702 6.44088 119.108 6.36994 118.617 6.5146C117.962 6.70748 117.409 7.16127 117.077 7.77613C116.829 8.23728 116.761 8.85127 116.623 10.0793C116.486 11.3072 116.417 11.9212 116.557 12.4287C116.744 13.1054 117.183 13.6777 117.778 14.0198C118.224 14.2764 119.456 14.4235 120.644 14.5653L119.466 25.1073C118.277 24.9654 117.046 24.8183 116.555 24.963C115.9 25.1559 115.346 25.6097 115.015 26.2245C114.767 26.6857 114.698 27.2997 114.561 28.5277C114.424 29.7556 114.355 30.3696 114.495 30.8771C114.682 31.5538 115.121 32.1261 115.716 32.4682C116.162 32.7248 116.756 32.7957 117.944 32.9376Z" fill="#4154FF"/>
<path d="M97.7334 5.50257C98.017 4.62355 98.8418 4.06418 100.208 3.82444C101.574 3.58471 103.636 3.46484 106.394 3.46484C109.178 3.46484 111.304 3.70458 112.773 4.18404C114.243 4.63687 114.977 5.28947 114.977 6.14186C114.977 6.54141 114.822 6.83442 114.513 7.02088C114.23 7.1807 113.972 7.31388 113.74 7.42043C113.534 7.50034 113.237 7.58025 112.851 7.66016C112.49 7.74007 112.155 7.81998 111.845 7.8999C111.536 7.95317 111.124 8.00644 110.608 8.05972C110.118 8.11299 109.693 8.16627 109.332 8.21954C108.971 8.24618 108.495 8.29945 107.902 8.37936C107.309 8.43264 106.768 8.48591 106.278 8.53918C105.788 8.59246 104.499 8.79223 102.412 9.13852V9.17847C102.412 10.1374 102.012 12.6812 101.213 16.81C101.548 16.8366 102.154 16.8499 103.03 16.8499C103.932 16.8499 105.105 16.7833 106.549 16.6501C107.992 16.4903 108.933 16.4104 109.371 16.4104C109.835 16.4104 110.222 16.5303 110.531 16.77C110.84 17.0097 110.995 17.2761 110.995 17.5691C110.995 18.2883 110.582 18.9276 109.758 19.487C108.933 20.0463 107.902 20.4859 106.665 20.8055C104.19 21.4448 102.012 21.7911 100.131 21.8443C99.3573 25.2272 98.8804 27.3049 98.7 28.0774C98.5454 28.8232 98.3778 29.5424 98.1974 30.235C97.8623 31.5935 97.553 32.2727 97.2695 32.2727C96.7282 32.2727 95.9936 31.6467 95.0657 30.3948C94.1378 29.1429 93.6738 28.2106 93.6738 27.5979C93.6738 26.5324 94.3053 23.1496 95.5683 17.4492C96.8571 11.7489 97.5401 8.16626 97.6175 6.70123V6.38159C97.6175 6.03531 97.6561 5.7423 97.7334 5.50257Z" fill="white"/>
<path d="M76.1031 2.18594C76.1031 1.06719 76.5284 0.507812 77.379 0.507812C78.0749 0.507812 78.874 1.10714 79.7761 2.30581C80.6782 3.50447 81.1293 4.52999 81.1293 5.38237C81.1293 6.23476 80.9618 7.43342 80.6267 8.97836C80.2916 10.5233 79.9436 11.9351 79.5828 13.2136C79.2477 14.4922 78.7322 16.3168 78.0363 18.6875C77.3403 21.0316 76.8635 22.6698 76.6057 23.602C78.2811 20.086 80.0467 17.2225 81.9026 15.0116C83.7842 12.8008 85.3565 11.6953 86.6194 11.6953C87.4185 11.6953 88.3335 12.4278 89.3645 13.8929C90.3955 15.3313 90.911 16.6365 90.911 17.8085C90.911 18.9539 90.7048 20.632 90.2924 22.8429C89.88 25.0538 89.1583 27.1847 88.1273 29.2358C87.0963 31.2868 86.0395 32.3123 84.9569 32.3123C84.1064 32.3123 83.6811 31.6864 83.6811 30.4344C83.6811 29.5288 83.9388 28.0504 84.4543 25.9994C85.2018 22.9361 85.5755 21.0715 85.5755 20.4056C85.5755 19.7397 85.4724 19.4067 85.2662 19.4067C83.7713 19.4067 81.5804 21.9772 78.6935 27.1181C77.7141 28.8762 76.8893 30.1814 76.2191 31.0338C75.5747 31.8861 74.9561 32.3123 74.3633 32.3123C73.7704 32.3123 73.0487 31.8195 72.1982 30.834C71.3733 29.8484 70.9609 29.0893 70.9609 28.5565C70.9609 27.9971 71.064 27.1847 71.2702 26.1192C71.5022 25.0538 71.8373 23.5355 72.2755 21.5643C72.7394 19.5932 73.4869 16.0238 74.5179 10.8563C75.5747 5.66206 76.1031 2.77195 76.1031 2.18594Z" fill="white"/>
<path d="M65.5545 11.7344C66.5339 11.7344 67.5005 12.3337 68.4542 13.5324C69.4079 14.731 69.8847 15.8098 69.8847 16.7688C69.8847 17.408 69.6141 17.7277 69.0728 17.7277C68.7635 17.7277 68.3124 17.6078 67.7196 17.3681C67.1268 17.1017 66.521 16.9685 65.9024 16.9685C65.3096 16.9685 64.4203 17.1816 63.2347 17.6078C62.0748 18.034 61.4948 18.5934 61.4948 19.2859C61.4948 19.5523 61.8428 19.9386 62.5387 20.4447C63.2347 20.9508 63.9951 21.4702 64.8199 22.0029C65.6447 22.5357 66.405 23.2815 67.101 24.2404C67.7969 25.1727 68.1449 26.1982 68.1449 27.317C68.1449 28.4091 67.3587 29.5145 65.7864 30.6333C64.2399 31.752 62.4099 32.3114 60.2963 32.3114C58.2085 32.3114 56.4171 31.8186 54.9221 30.8331C53.4272 29.8475 52.6797 28.8353 52.6797 27.7965C52.6797 26.7576 53.0921 26.2382 53.9169 26.2382C54.252 26.2382 54.6515 26.3714 55.1155 26.6377C56.4042 27.4102 58.0023 27.7965 59.9097 27.7965C61.8428 27.7965 62.8094 27.5301 62.8094 26.9973C62.8094 26.4646 62.4356 25.8786 61.6882 25.2393C60.9664 24.5734 60.1674 23.9607 59.2911 23.4014C58.4405 22.842 57.6414 22.1627 56.894 21.3636C56.1722 20.5379 55.8114 19.7388 55.8114 18.9663C55.8114 17.5279 57.0744 15.9696 59.6004 14.2915C62.1263 12.5868 64.111 11.7344 65.5545 11.7344Z" fill="white"/>
<path d="M51.6648 19.167C51.6648 20.4722 50.8013 21.6442 49.0743 22.6831C47.3732 23.7219 45.6205 24.2413 43.8162 24.2413C42.0119 24.2413 40.5298 24.1081 39.3699 23.8418C39.138 24.561 39.022 25.2802 39.022 25.9994C39.022 26.7186 39.138 27.238 39.3699 27.5576C39.6019 27.8506 40.1819 27.9971 41.1098 27.9971C43.0429 27.9971 44.6925 27.8107 46.0586 27.4377C47.4505 27.0648 48.1722 26.8784 48.2238 26.8784C49.2806 26.8784 49.8089 27.238 49.8089 27.9572C49.8089 28.996 48.9712 29.9816 47.2958 30.9139C45.6462 31.8462 43.726 32.3123 41.5351 32.3123C39.3699 32.3123 37.6301 31.6064 36.3156 30.1947C35.001 28.7829 34.3438 27.1181 34.3438 25.2002C34.3438 23.2557 34.885 21.2313 35.9676 19.127C37.0759 17.0227 38.4549 15.2647 40.1045 13.8529C41.7542 12.4145 43.3909 11.6953 45.0147 11.6953C46.6644 11.6953 48.1851 12.5344 49.577 14.2125C50.9688 15.864 51.6648 17.5155 51.6648 19.167ZM47.1799 18.5277C47.1799 18.2613 46.9092 17.8751 46.3679 17.369C45.8267 16.8629 45.3112 16.6098 44.8214 16.6098C44.3575 16.6098 43.7517 16.9694 43.0043 17.6886C42.2568 18.3812 41.548 19.2868 40.8778 20.4056C41.1098 20.4322 41.4449 20.4455 41.883 20.4455C45.4143 20.4455 47.1799 19.8063 47.1799 18.5277Z" fill="white"/>
<path d="M22.4628 18.4483L22.2308 13.9334C22.2308 12.4417 22.6819 11.6959 23.584 11.6959C24.0995 11.6959 24.6022 11.8957 25.0919 12.2952C25.6074 12.6948 25.994 13.3207 26.2518 14.1731C27.1281 13.374 28.0818 12.7347 29.1128 12.2552C30.1696 11.7491 31.0975 11.4961 31.8966 11.4961C33.7782 11.4961 34.719 11.9622 34.719 12.8945C34.719 13.374 34.6287 13.7336 34.4483 13.9733C34.2937 14.1864 34.1648 14.3462 34.0617 14.4528C33.9844 14.5593 33.8297 14.7058 33.5977 14.8923C33.3915 15.0521 33.2369 15.172 33.1338 15.2519C32.5409 15.6515 32.1157 15.9311 31.8579 16.091C30.698 16.8368 29.7057 17.7425 28.8809 18.8079C28.056 19.8468 27.4374 21.2985 27.025 23.1631C26.3291 26.2263 25.6461 28.5171 24.9759 30.0354C24.3315 31.5271 23.5969 32.2729 22.7721 32.2729C21.9731 32.2729 21.3673 31.8734 20.9549 31.0743C20.5683 30.2751 20.375 29.5293 20.375 28.8368C20.375 28.1176 20.6199 27.0521 21.1096 25.6403C21.6251 24.2286 21.9731 23.0166 22.1535 22.0044C22.3597 20.9655 22.4628 19.7802 22.4628 18.4483Z" fill="white"/>
<path d="M4.05961 5.50257C4.34314 4.62355 5.16795 4.06418 6.53404 3.82444C7.90014 3.58471 9.96216 3.46484 12.7201 3.46484C15.5039 3.46484 17.6303 3.70458 19.0995 4.18404C20.5687 4.63687 21.3033 5.28947 21.3033 6.14186C21.3033 6.54141 21.1486 6.83442 20.8393 7.02088C20.5558 7.1807 20.2981 7.31388 20.0661 7.42043C19.8599 7.50034 19.5635 7.58025 19.1768 7.66016C18.816 7.74007 18.4809 7.81998 18.1716 7.8999C17.8623 7.95317 17.4499 8.00644 16.9344 8.05972C16.4447 8.11299 16.0194 8.16627 15.6585 8.21954C15.2977 8.24618 14.8208 8.29945 14.228 8.37936C13.6351 8.43264 13.0939 8.48591 12.6041 8.53918C12.1144 8.59246 10.8256 8.79223 8.73783 9.13851V9.17847C8.73783 10.1374 8.33832 12.6812 7.53928 16.81C7.87436 16.8366 8.48008 16.8499 9.35644 16.8499C10.2586 16.8499 11.4314 16.7833 12.8748 16.6501C14.3182 16.4903 15.259 16.4104 15.6972 16.4104C16.1611 16.4104 16.5478 16.5303 16.8571 16.77C17.1664 17.0097 17.321 17.2761 17.321 17.5691C17.321 18.2883 16.9086 18.9276 16.0838 19.487C15.259 20.0463 14.228 20.4859 12.9908 20.8055C10.5163 21.4448 8.33832 21.7911 6.45672 21.8443C5.68346 25.2272 5.20661 27.3049 5.02619 28.0774C4.87154 28.8232 4.704 29.5424 4.52357 30.235C4.18849 31.5935 3.87919 32.2727 3.59566 32.2727C3.05438 32.2727 2.31978 31.6467 1.39187 30.3948C0.463956 29.1429 0 28.2106 0 27.5979C0 26.5324 0.631495 23.1496 1.89449 17.4492C3.18325 11.7489 3.8663 8.16626 3.94362 6.70123V6.38159C3.94362 6.03531 3.98229 5.7423 4.05961 5.50257Z" fill="#4154FF"/>
<path d="M143.156 16.5272C142.95 17.2464 142.641 18.2586 142.228 19.5638C141.842 20.8424 141.352 22.4539 140.759 24.3984C140.192 26.3429 139.909 27.3818 139.909 27.5149C139.909 27.6215 140.115 27.6748 140.527 27.6748C140.965 27.6748 141.983 27.3818 143.581 26.7957C145.18 26.1831 146.12 25.8768 146.404 25.8768C147.048 25.8768 147.37 26.3296 147.37 27.2352C147.37 28.1409 146.507 29.233 144.78 30.5116C143.053 31.7635 141.249 32.3895 139.367 32.3895C138.542 32.3895 137.563 31.9234 136.429 30.9911C135.295 30.0588 134.728 29.1132 134.728 28.1542C134.728 27.3551 135.114 25.677 135.888 23.1198C136.687 20.5361 137.228 18.7647 137.511 17.8058C136.506 18.0988 135.746 18.2453 135.23 18.2453C134.715 18.2453 134.173 17.8857 133.606 17.1665C133.039 16.4206 132.756 15.7148 132.756 15.0488C132.756 14.1965 134.753 13.4773 138.749 12.8913C139.238 10.414 139.483 8.26974 139.483 6.45843C139.483 5.65932 139.87 5.25977 140.643 5.25977C141.313 5.25977 142.164 5.68596 143.195 6.53834C144.252 7.36409 144.78 8.18983 144.78 9.01558C144.78 9.81468 144.613 10.9468 144.277 12.4118C145.515 12.3585 146.455 12.3319 147.1 12.3319C149.033 12.3319 150 12.7847 150 13.6904C150 14.2764 149.432 14.7825 148.298 15.2087C147.19 15.6082 145.476 16.0477 143.156 16.5272Z" fill="white"/>
</svg>
