<svg width="54" height="54" viewBox="0 0 54 54" fill="none" xmlns="http://www.w3.org/2000/svg">
<g filter="url(#filter0_i_1048_1006)">
<path fill-rule="evenodd" clip-rule="evenodd" d="M22.0649 19.2842C23.5565 19.2878 25.0136 19.7428 26.2521 20.5917C27.4907 21.4407 28.455 22.6456 29.0234 24.0541C29.5918 25.4626 29.7388 27.0116 29.4456 28.5054C29.1525 29.9992 28.4325 31.3707 27.3766 32.4467C26.3206 33.5227 24.9761 34.2549 23.5129 34.5508C22.0498 34.8468 20.5335 34.6931 19.1558 34.1093C17.7781 33.5254 16.6007 32.5376 15.7724 31.2707C14.944 30.0037 14.502 28.5144 14.502 26.9909C14.502 25.9773 14.6977 24.9737 15.078 24.0375C15.4583 23.1013 16.0156 22.251 16.7182 21.5351C17.4207 20.8192 18.2546 20.2519 19.172 19.8657C20.0895 19.4794 21.0726 19.2818 22.0649 19.2842ZM40.1265 44.1638V40.2499H29.6455C30.5559 39.4092 31.3858 38.4819 32.124 37.4805H41.4756C41.8334 37.4817 42.1764 37.6271 42.4298 37.8851C42.6833 38.1432 42.8268 38.493 42.8291 38.8585V44.1638C43.7031 44.4884 44.4372 45.1171 44.9024 45.9396C45.3676 46.762 45.5342 47.7256 45.3729 48.6611C45.2116 49.5966 44.7327 50.444 44.0203 51.0547C43.308 51.6653 42.4078 52 41.4778 52C40.5478 52 39.6476 51.6653 38.9352 51.0547C38.2229 50.444 37.744 49.5966 37.5827 48.6611C37.4213 47.7256 37.5879 46.762 38.0531 45.9396C38.5184 45.1171 39.2524 44.4884 40.1265 44.1638ZM39.1816 15.7563H33.1831C32.6007 14.7787 31.9377 13.8537 31.2012 12.9914H37.8325V9.84942C36.9555 9.5336 36.2154 8.91221 35.7424 8.09442C35.2693 7.27662 35.0936 6.31473 35.2459 5.37772C35.3983 4.4407 35.8691 3.5885 36.5756 2.97081C37.2821 2.35312 38.1791 2.00946 39.109 2.00019C40.0389 1.99093 40.9423 2.31665 41.6604 2.92014C42.3786 3.52363 42.8656 4.36629 43.0358 5.30009C43.2061 6.23389 43.0487 7.1991 42.5914 8.02617C42.134 8.85323 41.406 9.48925 40.5351 9.82249V14.3783C40.5351 14.5596 40.5001 14.7392 40.432 14.9067C40.364 15.0741 40.2642 15.2262 40.1385 15.3543C40.0127 15.4823 39.8635 15.5837 39.6993 15.6527C39.5351 15.7216 39.3592 15.7569 39.1816 15.7563ZM54 8.70486C53.9981 7.97804 53.8043 7.2652 53.439 6.64147C53.0737 6.01775 52.5504 5.50625 51.9242 5.16089C51.2981 4.81553 50.5923 4.64912 49.8813 4.67918C49.1703 4.70925 48.4804 4.93468 47.8844 5.33172C47.2883 5.72875 46.8082 6.28269 46.4946 6.93512C46.181 7.58756 46.0456 8.31432 46.1026 9.03881C46.1595 9.76329 46.4068 10.4587 46.8184 11.0516C47.2299 11.6445 47.7905 12.1131 48.4409 12.4079V20.4871H35.209C35.4602 21.3938 35.6468 22.3178 35.7671 23.252H49.79C50.1479 23.2497 50.4904 23.1031 50.743 22.8442C50.9956 22.5854 51.138 22.2351 51.1392 21.8696V12.5964C51.9653 12.3534 52.6915 11.8422 53.2077 11.14C53.7239 10.4378 54.002 9.58295 54 8.70486ZM53.9341 31.1158C53.9439 30.1587 53.6207 29.2291 53.022 28.4927C52.4234 27.7562 51.5881 27.2609 50.6652 27.0949C49.7422 26.9289 48.7915 27.103 47.9825 27.5862C47.1736 28.0694 46.5589 28.8304 46.248 29.7334H35.543C35.357 30.672 35.1013 31.5948 34.7783 32.4938H46.248C46.5588 33.3964 47.1731 34.1571 47.9816 34.6403C48.7901 35.1235 49.7403 35.298 50.6629 35.1326C51.5856 34.9672 52.4208 34.4726 53.0199 33.737C53.6189 33.0015 53.9429 32.0726 53.9341 31.1158ZM21.7793 49.2358H20.2148C19.5027 49.2346 18.8199 48.9455 18.3159 48.4315C17.8119 47.9176 17.5277 47.2208 17.5254 46.4934V43.6836C15.9898 43.3317 14.5104 42.7606 13.1309 41.9869L11.2939 43.8631C10.7891 44.3765 10.1057 44.6647 9.39331 44.6647C8.68092 44.6647 7.99753 44.3765 7.49268 43.8631L5.27344 41.5785C4.77188 41.0623 4.49043 40.3645 4.49043 39.6372C4.49043 38.9099 4.77188 38.2122 5.27344 37.6959L6.94776 35.9858C6.07126 34.5485 5.40921 32.9858 4.9834 31.3492H2.68946C1.97729 31.3481 1.29455 31.0589 0.790557 30.545C0.286564 30.031 0.00232621 29.3342 3.59061e-06 28.6068V25.3751C-0.000573978 25.0137 0.0685327 24.6558 0.203378 24.3218C0.338223 23.9878 0.536166 23.6841 0.785905 23.4282C1.03564 23.1723 1.33229 22.9691 1.6589 22.8303C1.98551 22.6915 2.33569 22.6197 2.68946 22.6191H4.93946C5.35661 20.9662 6.01433 19.3866 6.89063 17.9332L5.27344 16.2814C4.77321 15.7654 4.4926 15.0686 4.4926 14.3424C4.4926 13.6162 4.77321 12.9194 5.27344 12.4034L7.51026 10.1187C8.0151 9.60536 8.69849 9.31714 9.41089 9.31714C10.1233 9.31714 10.8067 9.60536 11.3115 10.1187L13.0693 11.9141C14.4643 11.1207 15.9634 10.5358 17.521 10.1771V7.48399C17.5245 6.7566 17.8098 6.06022 18.3147 5.54713C18.8195 5.03405 19.5027 4.74601 20.2148 4.74602H23.3745C24.0622 4.75085 24.722 5.02411 25.2188 5.5098C25.7155 5.99549 26.0116 6.65684 26.0464 7.35832V16.5507C24.8592 16.1094 23.6052 15.8845 22.3418 15.8864C22.1528 15.8864 21.9639 15.8864 21.7793 15.8864C21.5947 15.8864 21.4058 15.8864 21.2212 15.8864C19.7829 15.8568 18.3533 16.1206 17.016 16.6623C15.6788 17.204 14.4608 18.0127 13.4333 19.0412C12.4059 20.0697 11.5897 21.2971 11.0325 22.6518C10.4753 24.0064 10.1883 25.461 10.1883 26.9303C10.1883 28.3997 10.4753 29.8542 11.0325 31.2089C11.5897 32.5635 12.4059 33.791 13.4333 34.8195C14.4608 35.8479 15.6788 36.6567 17.016 37.1984C18.3533 37.7401 19.7829 38.0038 21.2212 37.9742C21.4058 37.9742 21.5947 37.9742 21.7793 37.9742C21.9639 37.9742 22.1528 37.9742 22.3418 37.9742C23.6052 37.9762 24.8592 37.7513 26.0464 37.3099V46.6235C26.0115 47.3273 25.7135 47.9906 25.214 48.4767C24.7144 48.9627 24.0513 49.2344 23.3613 49.2358H21.7793Z" fill="url(#paint0_linear_1048_1006)"/>
</g>
<defs>
<filter id="filter0_i_1048_1006" x="0" y="-1" width="54" height="55" filterUnits="userSpaceOnUse" color-interpolation-filters="sRGB">
<feFlood flood-opacity="0" result="BackgroundImageFix"/>
<feBlend mode="normal" in="SourceGraphic" in2="BackgroundImageFix" result="shape"/>
<feColorMatrix in="SourceAlpha" type="matrix" values="0 0 0 0 0 0 0 0 0 0 0 0 0 0 0 0 0 0 127 0" result="hardAlpha"/>
<feOffset dy="-1"/>
<feGaussianBlur stdDeviation="1.65"/>
<feComposite in2="hardAlpha" operator="arithmetic" k2="-1" k3="1"/>
<feColorMatrix type="matrix" values="0 0 0 0 0 0 0 0 0 0 0 0 0 0 0 0 0 0 0.4 0"/>
<feBlend mode="normal" in2="shape" result="effect1_innerShadow_1048_1006"/>
</filter>
<linearGradient id="paint0_linear_1048_1006" x1="2.44124" y1="9.22604" x2="59.5755" y2="18.8295" gradientUnits="userSpaceOnUse">
<stop stop-color="#2BBFFE"/>
<stop offset="0.521875" stop-color="#8629FD"/>
<stop offset="1" stop-color="#FC4AF5"/>
</linearGradient>
</defs>
</svg>
