<?xml version="1.0" standalone="no"?>
<!DOCTYPE svg PUBLIC "-//W3C//DTD SVG 20010904//EN"
 "http://www.w3.org/TR/2001/REC-SVG-20010904/DTD/svg10.dtd">
<svg version="1.0" xmlns="http://www.w3.org/2000/svg"
 width="700.000000pt" height="700.000000pt" viewBox="0 0 700.000000 700.000000"
 preserveAspectRatio="xMidYMid meet">
<metadata>
Created by potrace 1.14, written by Peter Selinger 2001-2017
</metadata>
<g transform="translate(0.000000,700.000000) scale(0.100000,-0.100000)"
fill="#000000" stroke="none">
<path d="M465 6352 l0 -647 1133 0 c755 0 1132 -3 1133 -10 3 -28 4 -4424 1
-4451 l-4 -32 -370 2 -370 1 -2 858 -1 857 25 1 c14 0 161 0 328 0 l302 0 0
587 0 588 -317 -1 c-175 0 -322 0 -328 2 -7 2 -9 260 -8 751 l1 748 -759 0
c-520 0 -759 -3 -760 -11 -1 -5 -2 -1267 -3 -2803 l-1 -2792 1915 3 c1053 2
1929 6 1945 9 17 4 63 9 104 13 100 8 312 36 381 50 115 23 184 39 226 51 28
8 62 17 75 19 90 17 326 108 472 181 384 194 675 499 822 864 91 226 129 446
128 730 0 142 -20 363 -37 411 -3 8 -7 25 -10 39 -27 159 -115 378 -218 541
-191 301 -440 507 -798 656 -52 22 -104 43 -115 47 -16 6 -2 18 75 68 364 233
601 555 705 954 14 53 28 120 31 148 4 28 8 54 10 57 10 18 18 212 19 469 l0
295 -955 1 c-525 1 -959 2 -965 3 -8 1 -11 39 -6 86 1 7 307 10 954 10 523 -1
957 1 963 2 8 3 11 193 11 648 l0 645 -2866 0 -2866 0 0 -648z m3872 -799
c266 -169 369 -445 307 -818 -9 -55 -52 -166 -86 -222 -35 -59 -152 -185 -180
-196 -17 -6 -18 -50 -18 -730 l0 -723 38 -13 c272 -96 464 -263 536 -469 42
-118 60 -315 42 -457 -31 -249 -169 -450 -379 -556 -107 -54 -244 -100 -307
-103 l-24 -1 -1 2162 c0 1190 3 2163 7 2163 4 0 34 -17 65 -37z"/>
</g>
</svg>
